<?xml version="1.0" encoding="UTF-8"?>
<svg id="Layer_1" data-name="Layer 1" xmlns="http://www.w3.org/2000/svg" viewBox="0 0 257.57 171.51">
  <defs>
    <style>
      .cls-1 {
        fill: #201d1e;
      }

      .cls-1, .cls-2, .cls-3 {
        stroke-width: 0px;
      }

      .cls-2 {
        fill: #00a86b;
      }

      .cls-3 {
        fill: #febe11;
      }
    </style>
  </defs>
  <path class="cls-1" d="M25.28,76.17s-2.72-10.98-.85-15.57c.09.17,13.96-1.45,18.21,15.15.17.09.17,13.11-3.74,16.43.17,0-3.58-1.11-5.66-4.51.05,0,.13,7.06,2.17,10.13,0-.43-6.64-3.49-8-7.06.26,0,0,6.21,3.74,11.15.17.09.34,1.53-1.53,0-.17.17.17,16.6,26.3,15.23,0-.09-8.34-8.6,5.53-20.26.09-.09,12.09-9.28,24.43-1.19.17.09,13.45,7.15,16.17,24.77.09,0,23.66-45.36,23.66-45.36l20.51,21.02,11.23-19.66-4.6-3.32,29.7-23.57,3.49,16.43,6.38-9.19-4-2.47,16.85-15.83h-42.72l72.09-14.98h-82.04s8.51,14.21-1.11,36.26c.17.26-1.28-31.23-9.45-39.32.17,0,86.72-12.34,86.72-12.34h-106.81s14.04,10.81,10.38,34.04c0,.26-9.45-31.66-22.3-33.7.09.09-.34-8.43-.34-8.43l-22.04,7.32s-20.77-5.53-42.13,3.57c.17,0-21.11,8.17-23.83,13.02-.26.17-.85,2.47-.85,3.06.09-.43,3.57.43,3.57.43,0,0-16.34,4.77-24.43,15.66.17-.26,11.49-3.66,14.98-1.62.17,0-5.62,5.7-5.62,5.7l-.43-1.53s-3.15.68-2.98,7.23c.09.34-4.43-2.04-5.45-4.17.17.17-.6,10.21,7.15,12.85.34.26,1.87,7.32,7.83,11.15-.17,0-2.04-8.51,0-10.81.09,0,1.11,8.26,9.79,14.3Z"/>
  <g>
    <path class="cls-3" d="M39.66,31.72s6-2.94,9.96-6.57c.06-.13-7.53-.26-10.4-1.91-.06-.06-6.83,7.15-6.83,7.15,0,0,5.3.19,7.28,1.34Z"/>
    <path class="cls-3" d="M29.26,36.32h4.02v.96s-5.55.13-10.09,2.74c0,.13,3.45-3.06,6.06-3.7Z"/>
    <path class="cls-3" d="M38.45,40.03l2.11,2.55s-11.55,1.21-17.04,4.79c.19-.06,5.49-6.31,14.94-7.34Z"/>
    <path class="cls-3" d="M43.49,49.4v-2.74s-12-.45-19.6,5.11c.19.19,12.19-4.47,19.6-2.36Z"/>
    <path class="cls-3" d="M46.94,38.87l10.34,4.82h1.91l7.72-5.2-2.11-7.21s-.96-1.47,1.28-3.8c.06.1,2.55-4.56,2.55-4.56l-9.77,4.91s.64,8.3-.7,8.49c0,.32-5.62,3.13-11.23,2.55Z"/>
    <path class="cls-3" d="M86.13,18.13l18.64-11.04s1.4,9.96-8.81,16.98c.32.06,1.09-1.98.83-3.06.19.13-4.34.83-10.66-2.87Z"/>
    <path class="cls-3" d="M71.77,32.94l9.89,11.04-.32,24.7-11.04,9.77s3-10.47,3-13.47c.06.06-15-14.49-15-14.49l13.47,5.87s5.62-8.49,0-23.43Z"/>
    <path class="cls-3" d="M76.17,86.62l13.28-9s1.02-26.25-.45-30.97c.06,0,10.85,4.03,12.57,5.75-.06.06-6.57-19.53-13.02-24.38,0,.26,24.14,13.32,25.6,39.89-.13.06-10.91-8.87-13.47-9.51-.19-.13,3.06,22.21-3.32,30.19.19.26-10.09-3.57-21.19-1.98Z"/>
    <path class="cls-3" d="M40.23,94.34l4.34,1.85s7.72-1.98,10.53-12.7c.06,0,.96-7.21-1.15-11.11,0,0-7.47,3-8.49,12.89-.06-.38-.64,6.96-5.23,9.06Z"/>
  </g>
  <polygon class="cls-2" points="84.34 171.51 126.6 89.94 146.51 109.98 164.77 76.28 158.38 73.47 179.83 57.13 181.74 85.21 175.36 81.38 149.32 129.26 130.04 110.11 84.34 171.51"/>
  <polygon class="cls-2" points="154.04 143.04 211.36 62.87 223.87 79.47 250.81 36.7 257.57 40.15 257.57 11.94 234.64 27.51 240.72 30.57 222.72 60.21 213.91 39.51 154.04 143.04"/>
</svg>